<?xml version="1.0" encoding="UTF-8" standalone="no"?>
<!DOCTYPE svg PUBLIC "-//W3C//DTD SVG 1.1//EN" "http://www.w3.org/Graphics/SVG/1.1/DTD/svg11.dtd">
<svg width="100%" height="100%" viewBox="0 0 100 59" version="1.1" xmlns="http://www.w3.org/2000/svg" xmlns:xlink="http://www.w3.org/1999/xlink" xml:space="preserve" xmlns:serif="http://www.serif.com/" style="fill-rule:evenodd;clip-rule:evenodd;stroke-linejoin:round;stroke-miterlimit:2;">
    <g transform="matrix(1,0,0,1,0,-21)">
        <path d="M93,32L78.4,38.7C77.3,39.2 76.5,40.4 76.5,41.6L76.5,58.4C76.5,59.6 77.2,60.8 78.4,61.3L93,68C95.1,69 97.5,67.4 97.5,65.1L97.5,34.9C97.5,32.6 95.1,31.1 93,32Z" style="fill:none;fill-rule:nonzero;stroke:rgb(17,17,17);stroke-width:4px;"/>
        <path d="M62.787,23.001L62.873,23.002L62.959,23.005L63.045,23.009L63.131,23.014L63.216,23.02L63.301,23.027L63.386,23.035L63.471,23.044L63.555,23.054L63.639,23.065L63.723,23.077L63.806,23.09L63.889,23.105L63.972,23.12L64.054,23.136L64.136,23.153L64.218,23.172L64.299,23.191L64.381,23.211L64.461,23.232L64.541,23.254L64.621,23.277L64.701,23.301L64.78,23.326L64.859,23.352L64.937,23.379L65.015,23.407L65.092,23.435L65.169,23.465L65.246,23.495L65.322,23.527L65.398,23.559L65.473,23.592L65.547,23.626L65.622,23.661L65.695,23.696L65.769,23.733L65.841,23.77L65.914,23.809L65.985,23.848L66.057,23.888L66.127,23.928L66.197,23.97L66.267,24.012L66.336,24.056L66.404,24.1L66.472,24.144L66.54,24.19L66.606,24.236L66.672,24.283L66.738,24.331L66.803,24.38L66.867,24.429L66.931,24.479L66.994,24.53L67.056,24.582L67.118,24.634L67.179,24.687L67.24,24.741L67.3,24.795L67.359,24.85L67.417,24.906L67.475,24.962L67.532,25.02L67.588,25.078L67.644,25.136L67.699,25.195L67.753,25.255L67.807,25.315L67.859,25.377L67.911,25.438L67.963,25.501L68.013,25.564L68.063,25.627L68.112,25.691L68.16,25.756L68.207,25.822L68.254,25.888L68.3,25.954L68.345,26.021L68.389,26.089L68.432,26.157L68.474,26.226L68.516,26.295L68.557,26.365L68.597,26.436L68.636,26.507L68.674,26.578L68.711,26.65L68.747,26.722L68.783,26.795L68.817,26.869L68.851,26.943L68.884,27.017L68.916,27.092L68.947,27.168L68.976,27.243L69.005,27.32L69.033,27.396L69.061,27.474L69.087,27.551L69.112,27.629L69.136,27.708L69.159,27.787L69.181,27.866L69.202,27.946L69.222,28.026L69.242,28.106L69.26,28.187L69.277,28.268L69.293,28.35L69.308,28.432L69.321,28.514L69.334,28.597L69.346,28.68L69.357,28.763L69.366,28.847L69.375,28.931L69.382,29.015L69.388,29.1L69.393,29.185L69.397,29.27L69.4,29.355L69.402,29.441L69.402,29.527L69.402,29.613L69.4,29.7L69.4,70.3L69.399,70.387L69.398,70.473L69.395,70.559L69.391,70.645L69.386,70.73L69.38,70.815L69.373,70.9L69.365,70.985L69.356,71.069L69.346,71.153L69.335,71.237L69.323,71.32L69.31,71.403L69.295,71.486L69.28,71.568L69.264,71.65L69.247,71.732L69.228,71.813L69.209,71.894L69.189,71.974L69.168,72.054L69.146,72.134L69.123,72.213L69.099,72.292L69.074,72.371L69.048,72.449L69.021,72.526L68.993,72.604L68.965,72.68L68.935,72.757L68.905,72.832L68.873,72.908L68.841,72.983L68.808,73.057L68.774,73.131L68.739,73.205L68.704,73.278L68.667,73.35L68.63,73.422L68.591,73.493L68.552,73.564L68.512,73.635L68.472,73.705L68.43,73.774L68.388,73.843L68.344,73.911L68.3,73.979L68.256,74.046L68.21,74.112L68.164,74.178L68.117,74.244L68.069,74.309L68.02,74.373L67.971,74.436L67.921,74.499L67.87,74.562L67.818,74.623L67.766,74.685L67.713,74.745L67.659,74.805L67.605,74.864L67.55,74.922L67.494,74.98L67.438,75.038L67.38,75.094L67.322,75.15L67.264,75.205L67.205,75.259L67.145,75.313L67.085,75.366L67.023,75.418L66.962,75.47L66.899,75.521L66.836,75.571L66.773,75.62L66.709,75.669L66.644,75.717L66.578,75.764L66.512,75.81L66.446,75.856L66.379,75.9L66.311,75.944L66.243,75.988L66.174,76.03L66.105,76.072L66.035,76.112L65.964,76.152L65.893,76.191L65.822,76.23L65.75,76.267L65.678,76.304L65.605,76.339L65.531,76.374L65.457,76.408L65.383,76.441L65.308,76.473L65.232,76.505L65.157,76.535L65.08,76.565L65.004,76.593L64.926,76.621L64.849,76.648L64.771,76.674L64.692,76.699L64.613,76.723L64.534,76.746L64.454,76.768L64.374,76.789L64.294,76.809L64.213,76.828L64.132,76.847L64.05,76.864L63.968,76.88L63.886,76.895L63.803,76.91L63.72,76.923L63.637,76.935L63.553,76.946L63.469,76.956L63.385,76.965L63.3,76.973L63.215,76.98L63.13,76.986L63.045,76.991L62.959,76.995L62.873,76.998L62.787,76.999L62.7,77L9.2,77L9.113,76.999L9.027,76.998L8.941,76.995L8.855,76.991L8.77,76.986L8.685,76.98L8.6,76.973L8.515,76.965L8.431,76.956L8.347,76.946L8.263,76.935L8.18,76.923L8.097,76.91L8.014,76.895L7.932,76.88L7.85,76.864L7.768,76.847L7.687,76.828L7.606,76.809L7.526,76.789L7.446,76.768L7.366,76.746L7.287,76.723L7.208,76.699L7.129,76.674L7.051,76.648L6.974,76.621L6.896,76.593L6.82,76.565L6.743,76.535L6.668,76.505L6.592,76.473L6.517,76.441L6.443,76.408L6.369,76.374L6.295,76.339L6.222,76.304L6.15,76.267L6.078,76.23L6.007,76.191L5.936,76.152L5.865,76.112L5.795,76.072L5.726,76.03L5.657,75.988L5.589,75.944L5.521,75.9L5.454,75.856L5.388,75.81L5.322,75.764L5.256,75.717L5.191,75.669L5.127,75.62L5.064,75.571L5.001,75.521L4.938,75.47L4.877,75.418L4.815,75.366L4.755,75.313L4.695,75.259L4.636,75.205L4.578,75.15L4.52,75.094L4.463,75.038L4.406,74.98L4.35,74.922L4.295,74.864L4.241,74.805L4.187,74.745L4.134,74.685L4.082,74.623L4.03,74.562L3.979,74.499L3.929,74.436L3.88,74.373L3.831,74.309L3.783,74.244L3.736,74.178L3.69,74.112L3.644,74.046L3.6,73.979L3.556,73.911L3.512,73.843L3.47,73.774L3.428,73.705L3.388,73.635L3.348,73.564L3.309,73.493L3.27,73.422L3.233,73.35L3.196,73.278L3.161,73.205L3.126,73.131L3.092,73.057L3.059,72.983L3.027,72.908L2.995,72.832L2.965,72.757L2.935,72.68L2.907,72.604L2.879,72.526L2.852,72.449L2.826,72.371L2.801,72.292L2.777,72.213L2.754,72.134L2.732,72.054L2.711,71.974L2.691,71.894L2.672,71.813L2.653,71.732L2.636,71.65L2.62,71.568L2.605,71.486L2.59,71.403L2.577,71.32L2.565,71.237L2.554,71.153L2.544,71.069L2.535,70.985L2.527,70.9L2.52,70.815L2.514,70.73L2.509,70.645L2.505,70.559L2.502,70.473L2.501,70.387L2.5,70.3L2.5,29.7L2.501,29.613L2.502,29.527L2.505,29.441L2.509,29.355L2.514,29.27L2.52,29.185L2.527,29.1L2.535,29.015L2.544,28.931L2.554,28.847L2.565,28.763L2.577,28.68L2.59,28.597L2.605,28.514L2.62,28.432L2.636,28.35L2.653,28.268L2.672,28.187L2.691,28.106L2.711,28.026L2.732,27.946L2.754,27.866L2.777,27.787L2.801,27.708L2.826,27.629L2.852,27.551L2.879,27.474L2.907,27.396L2.935,27.32L2.965,27.243L2.995,27.168L3.027,27.092L3.059,27.017L3.092,26.943L3.126,26.869L3.161,26.795L3.196,26.722L3.233,26.65L3.27,26.578L3.309,26.507L3.348,26.436L3.388,26.365L3.428,26.295L3.47,26.226L3.512,26.157L3.556,26.089L3.6,26.021L3.644,25.954L3.69,25.888L3.736,25.822L3.783,25.756L3.831,25.691L3.88,25.627L3.929,25.564L3.979,25.501L4.03,25.438L4.082,25.377L4.134,25.315L4.187,25.255L4.241,25.195L4.295,25.136L4.35,25.078L4.406,25.02L4.463,24.962L4.52,24.906L4.578,24.85L4.636,24.795L4.695,24.741L4.755,24.687L4.815,24.634L4.877,24.582L4.938,24.53L5.001,24.479L5.064,24.429L5.127,24.38L5.191,24.331L5.256,24.283L5.322,24.236L5.388,24.19L5.454,24.144L5.521,24.1L5.589,24.056L5.657,24.012L5.726,23.97L5.795,23.928L5.865,23.888L5.936,23.848L6.007,23.809L6.078,23.77L6.15,23.733L6.222,23.696L6.295,23.661L6.369,23.626L6.443,23.592L6.517,23.559L6.592,23.527L6.668,23.495L6.743,23.465L6.82,23.435L6.896,23.407L6.974,23.379L7.051,23.352L7.129,23.326L7.208,23.301L7.287,23.277L7.366,23.254L7.446,23.232L7.526,23.211L7.606,23.191L7.687,23.172L7.768,23.153L7.85,23.136L7.932,23.12L8.014,23.105L8.097,23.09L8.18,23.077L8.263,23.065L8.347,23.054L8.431,23.044L8.515,23.035L8.6,23.027L8.685,23.02L8.77,23.014L8.855,23.009L8.941,23.005L9.027,23.002L9.113,23.001L9.2,23L62.7,23L62.787,23.001ZM9.213,27L9.164,27L9.128,27.001L9.093,27.002L9.058,27.004L9.023,27.006L8.988,27.008L8.954,27.011L8.919,27.014L8.885,27.018L8.851,27.022L8.817,27.026L8.784,27.031L8.751,27.037L8.718,27.042L8.685,27.048L8.652,27.055L8.619,27.062L8.587,27.069L8.555,27.077L8.522,27.085L8.491,27.093L8.459,27.102L8.427,27.111L8.396,27.121L8.365,27.131L8.334,27.141L8.303,27.152L8.272,27.163L8.241,27.174L8.211,27.186L8.181,27.198L8.151,27.211L8.121,27.223L8.091,27.237L8.061,27.25L8.032,27.264L8.003,27.279L7.974,27.293L7.945,27.308L7.916,27.324L7.888,27.339L7.859,27.355L7.831,27.372L7.803,27.389L7.775,27.406L7.748,27.423L7.721,27.441L7.693,27.459L7.667,27.477L7.64,27.496L7.613,27.515L7.587,27.534L7.561,27.554L7.535,27.574L7.51,27.595L7.484,27.615L7.459,27.636L7.435,27.657L7.41,27.679L7.386,27.701L7.362,27.723L7.338,27.745L7.314,27.768L7.291,27.791L7.268,27.814L7.245,27.838L7.223,27.862L7.201,27.886L7.179,27.91L7.157,27.935L7.136,27.959L7.115,27.984L7.095,28.01L7.074,28.035L7.054,28.061L7.034,28.087L7.015,28.113L6.996,28.14L6.977,28.167L6.959,28.193L6.941,28.221L6.923,28.248L6.906,28.275L6.889,28.303L6.872,28.331L6.855,28.359L6.839,28.388L6.824,28.416L6.808,28.445L6.793,28.474L6.779,28.503L6.764,28.532L6.75,28.561L6.737,28.591L6.723,28.621L6.711,28.651L6.698,28.681L6.686,28.711L6.674,28.741L6.663,28.772L6.652,28.803L6.641,28.834L6.631,28.865L6.621,28.896L6.611,28.927L6.602,28.959L6.593,28.991L6.585,29.022L6.577,29.055L6.569,29.087L6.562,29.119L6.555,29.152L6.548,29.185L6.542,29.218L6.537,29.251L6.531,29.284L6.526,29.317L6.522,29.351L6.518,29.385L6.514,29.419L6.511,29.454L6.508,29.488L6.506,29.523L6.504,29.558L6.502,29.593L6.501,29.628L6.5,29.664L6.5,29.713L6.5,70.287L6.5,70.336L6.501,70.372L6.502,70.407L6.504,70.442L6.506,70.477L6.508,70.512L6.511,70.546L6.514,70.581L6.518,70.615L6.522,70.649L6.526,70.682L6.531,70.716L6.537,70.749L6.542,70.782L6.548,70.815L6.555,70.848L6.562,70.881L6.569,70.913L6.577,70.945L6.585,70.978L6.593,71.009L6.602,71.041L6.611,71.073L6.621,71.104L6.631,71.135L6.641,71.166L6.652,71.197L6.663,71.228L6.674,71.259L6.686,71.289L6.698,71.319L6.711,71.349L6.723,71.379L6.737,71.409L6.75,71.439L6.764,71.468L6.779,71.497L6.793,71.526L6.808,71.555L6.824,71.584L6.839,71.612L6.855,71.641L6.872,71.669L6.889,71.697L6.906,71.725L6.923,71.752L6.941,71.779L6.959,71.807L6.977,71.833L6.996,71.86L7.015,71.887L7.034,71.913L7.054,71.939L7.074,71.965L7.095,71.99L7.115,72.016L7.136,72.041L7.157,72.066L7.179,72.09L7.201,72.114L7.223,72.138L7.245,72.162L7.268,72.186L7.291,72.209L7.314,72.232L7.338,72.255L7.362,72.277L7.386,72.299L7.41,72.321L7.435,72.343L7.459,72.364L7.484,72.385L7.51,72.405L7.535,72.426L7.561,72.446L7.587,72.466L7.613,72.485L7.64,72.504L7.667,72.523L7.693,72.541L7.721,72.559L7.748,72.577L7.776,72.594L7.803,72.611L7.831,72.628L7.859,72.645L7.888,72.661L7.916,72.676L7.945,72.692L7.974,72.707L8.003,72.721L8.032,72.736L8.061,72.75L8.091,72.763L8.121,72.777L8.15,72.789L8.181,72.802L8.211,72.814L8.241,72.826L8.272,72.837L8.303,72.848L8.334,72.859L8.365,72.869L8.396,72.879L8.427,72.889L8.459,72.898L8.491,72.907L8.522,72.915L8.555,72.923L8.587,72.931L8.619,72.938L8.652,72.945L8.685,72.952L8.717,72.958L8.751,72.963L8.784,72.969L8.817,72.974L8.851,72.978L8.885,72.982L8.919,72.986L8.953,72.989L8.988,72.992L9.023,72.994L9.058,72.996L9.093,72.998L9.128,72.999L9.164,73L9.213,73L62.687,73L62.736,73L62.772,72.999L62.807,72.998L62.842,72.996L62.877,72.994L62.912,72.992L62.947,72.989L62.981,72.986L63.015,72.982L63.049,72.978L63.083,72.974L63.116,72.969L63.149,72.963L63.183,72.958L63.215,72.952L63.248,72.945L63.281,72.938L63.313,72.931L63.345,72.923L63.378,72.915L63.409,72.907L63.441,72.898L63.473,72.889L63.504,72.879L63.535,72.869L63.566,72.859L63.597,72.848L63.628,72.837L63.659,72.826L63.689,72.814L63.719,72.802L63.749,72.789L63.779,72.777L63.809,72.763L63.839,72.75L63.868,72.736L63.897,72.721L63.926,72.707L63.955,72.692L63.984,72.676L64.012,72.661L64.041,72.645L64.069,72.628L64.097,72.611L64.124,72.594L64.152,72.577L64.179,72.559L64.207,72.541L64.234,72.523L64.26,72.504L64.287,72.485L64.313,72.466L64.339,72.446L64.365,72.426L64.39,72.405L64.416,72.385L64.441,72.364L64.465,72.343L64.49,72.321L64.514,72.299L64.538,72.277L64.562,72.255L64.586,72.232L64.609,72.209L64.632,72.186L64.655,72.162L64.677,72.138L64.699,72.114L64.721,72.09L64.743,72.066L64.764,72.041L64.785,72.016L64.805,71.99L64.826,71.965L64.846,71.939L64.865,71.913L64.885,71.887L64.904,71.86L64.923,71.834L64.941,71.807L64.959,71.779L64.977,71.752L64.994,71.725L65.012,71.697L65.028,71.669L65.045,71.641L65.061,71.612L65.076,71.584L65.092,71.555L65.107,71.526L65.121,71.497L65.136,71.468L65.15,71.439L65.163,71.409L65.177,71.379L65.189,71.349L65.202,71.319L65.214,71.289L65.226,71.259L65.237,71.228L65.248,71.197L65.259,71.166L65.269,71.135L65.279,71.104L65.289,71.073L65.298,71.041L65.307,71.009L65.315,70.978L65.323,70.945L65.331,70.913L65.338,70.881L65.345,70.848L65.351,70.816L65.358,70.782L65.363,70.749L65.369,70.716L65.374,70.683L65.378,70.649L65.382,70.615L65.386,70.581L65.389,70.547L65.392,70.512L65.394,70.477L65.396,70.442L65.398,70.407L65.399,70.372L65.4,70.336L65.4,70.287L65.4,29.659L65.402,29.559L65.402,29.526L65.402,29.494L65.401,29.462L65.4,29.43L65.399,29.398L65.397,29.367L65.395,29.336L65.392,29.305L65.389,29.274L65.385,29.243L65.381,29.213L65.377,29.182L65.373,29.152L65.367,29.122L65.362,29.093L65.356,29.063L65.35,29.033L65.344,29.004L65.337,28.975L65.329,28.945L65.322,28.917L65.313,28.888L65.305,28.859L65.296,28.83L65.287,28.801L65.277,28.773L65.267,28.745L65.257,28.716L65.246,28.688L65.235,28.66L65.224,28.632L65.212,28.604L65.2,28.577L65.187,28.549L65.174,28.521L65.161,28.494L65.147,28.467L65.133,28.439L65.119,28.412L65.104,28.385L65.089,28.358L65.073,28.332L65.057,28.305L65.041,28.278L65.024,28.252L65.007,28.226L64.989,28.2L64.971,28.174L64.953,28.148L64.935,28.122L64.916,28.097L64.896,28.071L64.877,28.046L64.857,28.021L64.836,27.996L64.816,27.972L64.795,27.948L64.773,27.923L64.751,27.899L64.729,27.875L64.707,27.852L64.684,27.829L64.661,27.805L64.638,27.783L64.614,27.76L64.59,27.737L64.566,27.715L64.541,27.693L64.516,27.672L64.491,27.65L64.465,27.629L64.439,27.608L64.413,27.588L64.387,27.568L64.36,27.548L64.333,27.528L64.306,27.508L64.278,27.489L64.251,27.471L64.223,27.452L64.194,27.434L64.166,27.416L64.137,27.399L64.108,27.382L64.079,27.365L64.05,27.348L64.02,27.332L63.99,27.316L63.96,27.301L63.93,27.286L63.9,27.271L63.869,27.257L63.838,27.243L63.807,27.229L63.776,27.216L63.745,27.203L63.714,27.191L63.682,27.178L63.65,27.167L63.618,27.155L63.586,27.144L63.554,27.134L63.521,27.123L63.489,27.114L63.456,27.104L63.423,27.095L63.39,27.086L63.357,27.078L63.324,27.07L63.29,27.063L63.257,27.056L63.223,27.049L63.189,27.043L63.155,27.037L63.121,27.032L63.087,27.027L63.052,27.022L63.018,27.018L62.983,27.014L62.948,27.011L62.913,27.008L62.878,27.006L62.843,27.004L62.807,27.002L62.772,27.001L62.736,27L62.687,27L9.213,27ZM30.073,33.91L30.283,33.924L30.494,33.946L30.704,33.974L30.915,34.011L31.126,34.055L31.336,34.106L31.545,34.166L31.752,34.233L31.959,34.308L32.163,34.391L32.364,34.481L32.563,34.579L32.759,34.685L32.952,34.798L33.141,34.918L33.245,34.989L47.99,44.852L48.074,44.906L48.247,45.026L48.415,45.15L48.578,45.28L48.735,45.415L48.887,45.555L49.034,45.699L49.174,45.847L49.309,45.998L49.437,46.153L49.56,46.312L49.676,46.473L49.786,46.637L49.89,46.803L49.988,46.971L50.08,47.142L50.166,47.314L50.247,47.487L50.321,47.662L50.389,47.838L50.452,48.015L50.508,48.193L50.56,48.372L50.605,48.551L50.645,48.731L50.68,48.912L50.709,49.093L50.733,49.274L50.752,49.455L50.765,49.637L50.773,49.818L50.775,50L50.773,50.182L50.765,50.363L50.752,50.545L50.733,50.726L50.709,50.907L50.68,51.088L50.645,51.269L50.605,51.449L50.56,51.628L50.508,51.807L50.452,51.985L50.389,52.162L50.321,52.338L50.247,52.513L50.166,52.686L50.08,52.858L49.988,53.029L49.89,53.197L49.786,53.363L49.676,53.527L49.56,53.688L49.437,53.847L49.309,54.002L49.174,54.153L49.034,54.301L48.887,54.445L48.735,54.585L48.578,54.72L48.415,54.85L48.247,54.974L48.074,55.094L47.99,55.148L33.193,65.045L33.033,65.148L32.843,65.261L32.65,65.367L32.453,65.467L32.253,65.559L32.05,65.644L31.845,65.721L31.638,65.791L31.429,65.854L31.219,65.909L31.008,65.956L30.796,65.996L30.584,66.028L30.372,66.052L30.16,66.069L29.949,66.079L29.738,66.081L29.529,66.076L29.321,66.064L29.114,66.045L28.909,66.019L28.707,65.987L28.506,65.948L28.307,65.902L28.111,65.851L27.918,65.793L27.727,65.729L27.539,65.659L27.354,65.583L27.172,65.502L26.993,65.415L26.817,65.322L26.645,65.224L26.475,65.12L26.309,65.012L26.147,64.898L25.988,64.779L25.834,64.654L25.682,64.525L25.535,64.39L25.392,64.251L25.253,64.107L25.119,63.957L24.988,63.803L24.863,63.644L24.742,63.481L24.626,63.313L24.516,63.14L24.411,62.963L24.311,62.782L24.217,62.596L24.129,62.407L24.047,62.213L23.971,62.016L23.902,61.816L23.84,61.612L23.784,61.405L23.736,61.196L23.694,60.984L23.66,60.77L23.634,60.555L23.615,60.337L23.603,60.119L23.6,59.935L23.6,40.065L23.603,39.877L23.615,39.654L23.634,39.432L23.662,39.212L23.697,38.993L23.739,38.776L23.789,38.561L23.847,38.349L23.912,38.14L23.984,37.934L24.062,37.731L24.148,37.533L24.24,37.338L24.338,37.148L24.442,36.962L24.553,36.781L24.668,36.605L24.789,36.434L24.915,36.268L25.046,36.107L25.182,35.951L25.322,35.8L25.467,35.655L25.616,35.516L25.768,35.382L25.924,35.253L26.084,35.13L26.248,35.012L26.414,34.9L26.584,34.794L26.757,34.693L26.933,34.599L27.112,34.509L27.294,34.426L27.479,34.348L27.666,34.277L27.855,34.211L28.047,34.152L28.241,34.098L28.438,34.051L28.636,34.01L28.837,33.976L29.039,33.948L29.243,33.926L29.449,33.912L29.656,33.904L29.864,33.904L30.073,33.91ZM29.734,37.904L29.663,37.907L29.591,37.912L29.52,37.919L29.449,37.929L29.379,37.941L29.309,37.955L29.24,37.972L29.171,37.991L29.103,38.012L29.036,38.035L28.969,38.061L28.904,38.089L28.839,38.118L28.775,38.15L28.712,38.184L28.651,38.22L28.59,38.258L28.531,38.297L28.473,38.339L28.416,38.383L28.361,38.428L28.307,38.476L28.254,38.525L28.203,38.576L28.154,38.629L28.107,38.683L28.061,38.74L28.017,38.798L27.975,38.857L27.934,38.919L27.896,38.982L27.86,39.046L27.826,39.112L27.794,39.18L27.764,39.249L27.737,39.319L27.711,39.391L27.689,39.465L27.668,39.54L27.651,39.616L27.635,39.693L27.623,39.772L27.613,39.852L27.606,39.934L27.601,40.016L27.6,40.1L27.6,59.9L27.601,59.979L27.605,60.058L27.612,60.135L27.622,60.211L27.634,60.287L27.648,60.361L27.665,60.434L27.685,60.506L27.706,60.577L27.73,60.647L27.757,60.716L27.785,60.783L27.816,60.849L27.849,60.914L27.883,60.977L27.92,61.039L27.959,61.1L28,61.159L28.042,61.216L28.086,61.272L28.132,61.327L28.18,61.38L28.229,61.431L28.28,61.48L28.333,61.528L28.387,61.574L28.442,61.619L28.498,61.661L28.556,61.702L28.616,61.741L28.676,61.778L28.738,61.812L28.8,61.845L28.864,61.876L28.929,61.905L28.994,61.932L29.061,61.957L29.128,61.98L29.196,62L29.265,62.018L29.335,62.034L29.405,62.048L29.475,62.059L29.547,62.068L29.618,62.075L29.691,62.079L29.763,62.08L29.836,62.08L29.909,62.076L29.982,62.07L30.056,62.062L30.129,62.051L30.203,62.037L30.276,62.021L30.35,62.001L30.423,61.979L30.496,61.955L30.569,61.927L30.642,61.897L30.715,61.863L30.787,61.827L30.858,61.788L30.929,61.745L31,61.7L45.8,51.8L45.86,51.762L45.918,51.722L45.974,51.68L46.029,51.637L46.081,51.592L46.131,51.545L46.18,51.498L46.227,51.448L46.271,51.398L46.314,51.346L46.355,51.293L46.394,51.239L46.431,51.184L46.467,51.128L46.5,51.071L46.531,51.012L46.561,50.953L46.588,50.894L46.614,50.833L46.638,50.772L46.66,50.71L46.68,50.647L46.698,50.584L46.714,50.52L46.728,50.456L46.741,50.392L46.751,50.327L46.76,50.262L46.766,50.197L46.771,50.131L46.774,50.066L46.775,50L46.774,49.934L46.771,49.869L46.766,49.803L46.76,49.738L46.751,49.673L46.741,49.608L46.728,49.544L46.714,49.48L46.698,49.416L46.68,49.353L46.66,49.29L46.638,49.228L46.614,49.167L46.588,49.106L46.561,49.047L46.531,48.987L46.5,48.929L46.467,48.872L46.431,48.816L46.394,48.761L46.355,48.707L46.314,48.654L46.271,48.602L46.227,48.552L46.18,48.502L46.131,48.455L46.081,48.408L46.029,48.363L45.974,48.32L45.918,48.278L45.86,48.238L45.8,48.2L31,38.3L30.934,38.255L30.867,38.212L30.799,38.172L30.731,38.136L30.662,38.102L30.593,38.07L30.522,38.042L30.452,38.016L30.381,37.993L30.31,37.973L30.238,37.956L30.166,37.941L30.094,37.928L30.022,37.918L29.95,37.911L29.878,37.906L29.806,37.904L29.734,37.904Z" style="fill:rgb(17,17,17);"/>
    </g>
    <g id="Artboard1" transform="matrix(1,0,0,1,0,-21.2826)">
        <rect x="0" y="21.283" width="100" height="58.773" style="fill:none;"/>
    </g>
</svg>
