<?xml version="1.0" encoding="UTF-8" standalone="no"?>
<!DOCTYPE svg PUBLIC "-//W3C//DTD SVG 1.1//EN" "http://www.w3.org/Graphics/SVG/1.1/DTD/svg11.dtd">
<svg width="100%" height="100%" viewBox="0 0 69 69" version="1.1" xmlns="http://www.w3.org/2000/svg" xmlns:xlink="http://www.w3.org/1999/xlink" xml:space="preserve" xmlns:serif="http://www.serif.com/" style="fill-rule:evenodd;clip-rule:evenodd;stroke-linejoin:round;stroke-miterlimit:2;">
    <g transform="matrix(0.141097,0,0,0.141097,-1254.37,-277.082)">
        <g transform="matrix(399.223,0,0,399.223,9057.61,2355.88)">
            <path d="M0.13,0.012C0.115,0.012 0.102,0.01 0.091,0.006C0.08,0.001 0.072,-0.005 0.065,-0.012C0.058,-0.019 0.054,-0.026 0.051,-0.035C0.048,-0.044 0.046,-0.053 0.046,-0.062C0.046,-0.07 0.047,-0.079 0.049,-0.089C0.05,-0.099 0.052,-0.108 0.054,-0.115L0.134,-0.438L0.051,-0.438L0.064,-0.491L0.284,-0.534L0.169,-0.069L0.187,-0.061L0.284,-0.176L0.317,-0.155L0.256,-0.071C0.235,-0.04 0.214,-0.018 0.193,-0.006C0.172,0.006 0.151,0.012 0.13,0.012ZM0.246,-0.617C0.225,-0.617 0.208,-0.623 0.197,-0.634C0.185,-0.645 0.179,-0.659 0.179,-0.674C0.179,-0.682 0.18,-0.69 0.182,-0.698C0.187,-0.717 0.196,-0.732 0.211,-0.743C0.226,-0.753 0.244,-0.759 0.265,-0.759C0.286,-0.759 0.303,-0.753 0.315,-0.742C0.326,-0.731 0.332,-0.717 0.332,-0.702C0.332,-0.694 0.331,-0.686 0.329,-0.678C0.324,-0.659 0.315,-0.645 0.3,-0.634C0.285,-0.623 0.267,-0.617 0.246,-0.617Z" style="fill:rgb(35,31,32);fill-rule:nonzero;"/>
        </g>
        <g transform="matrix(1.03409,0,0,1.03409,7506.74,639.204)">
            <path d="M1573.46,1280.9C1645.02,1281.24 1716.17,1316.15 1760.13,1374.19C1804.6,1432.9 1819.38,1513.43 1797.33,1585.04C1777.05,1650.9 1726.54,1706.43 1662.82,1732.94C1605.89,1756.63 1539.56,1756.65 1482.58,1732.94C1407.74,1701.8 1351.15,1630.19 1339.89,1547.99C1329.78,1474.09 1356.9,1396.1 1412.14,1344.36C1454.94,1304.28 1512.76,1281.18 1571.94,1280.9L1573.46,1280.9ZM1572.02,1305.47C1508.33,1305.77 1445.49,1336.36 1406.02,1387.51C1365.4,1440.16 1351.65,1512.45 1371.37,1577.19C1389.36,1636.27 1434.65,1686.39 1492.02,1710.26C1554.99,1736.46 1630.65,1729.65 1688.2,1691.76C1746.26,1653.53 1783.34,1585.6 1783.12,1515.2C1782.9,1446.64 1747,1379.23 1689.25,1340.71C1655.16,1317.96 1614.4,1305.66 1573.38,1305.47L1572.02,1305.47Z" style="fill:rgb(35,31,32);"/>
        </g>
    </g>
</svg>
